PathFileType	4	(X/Y/Z)	pose_F01_0-92.trc
DataRate	CameraRate	NumFrames	NumMarkers	Units	OrigDataRate	OrigDataStartFrame	OrigNumFrames
30	30	8	21	m	30	52	92
Frame#	Time	CHip			RHip			RKnee			RAnkle			RBigToe			RSmallToe			RHeel			LHip			LKnee			LAnkle			LBigToe			LSmallToe			LHeel			Neck			Nose			RShoulder			RElbow			RWrist			LShoulder			LElbow			LWrist			
		X1	Y1	Z1	X2	Y2	Z2	X3	Y3	Z3	X4	Y4	Z4	X5	Y5	Z5	X6	Y6	Z6	X7	Y7	Z7	X8	Y8	Z8	X9	Y9	Z9	X10	Y10	Z10	X11	Y11	Z11	X12	Y12	Z12	X13	Y13	Z13	X14	Y14	Z14	X15	Y15	Z15	X16	Y16	Z16	X17	Y17	Z17	X18	Y18	Z18	X19	Y19	Z19	X20	Y20	Z20	X21	Y21	Z21	
52	1.7333333333333334	-0.3102243469788852	1.8942382786964476	-0.5546777369419427	-0.3244541425053256	1.889606775061238	-0.5046417261113081	-0.2845250009480527	1.740922130104861	-0.49704934337924445													-0.2931420028908036	1.898419530606746	-0.6068631542714656	-0.2730401715481094	1.7625080961324966	-0.6366336134703777	-0.25234783649398307	1.6340594394498118	-0.698306334909448	-0.24319287828254443	1.5869225018089845	-0.6736898616535908	-0.23590275723623388	1.5967784196698764	-0.7117394454873063	-0.2550621309209588	1.6259239649930881	-0.7035568654229565	-0.3210791043826125	2.0417381105040473	-0.5704114343893093	-0.3004546300194238	2.084938657215057	-0.5434101928115648	-0.3401991126782653	2.030942546925914	-0.5028906499707938	-1.6152208388726605	1.8592754184897973	0.861281904483319	-0.34122126797304936	1.884705932460191	-0.4411999942661739	-0.2965882758421814	2.0546082991309427	-0.6348782622198458	-0.2554803756110546	2.0286248393810347	-0.6046576805904054	-0.2420623132787299	2.024085491259542	-0.516932322893858
53	1.7666666666666666	-0.31326515968890056	1.8908137083501582	-0.5551423532363464	-0.3314028572560184	1.8871957712894643	-0.5010262262411223	-0.2845250009480527	1.740922130104861	-0.49704934337924445													-0.3002063351544616	1.89520250446012	-0.6030361813407564	-0.27468234709374084	1.7619722687678936	-0.6356497524286853	-0.25234783649398307	1.6340594394498118	-0.698306334909448	-0.24319287828254443	1.5869225018089845	-0.6736898616535908	-0.23590275723623388	1.5967784196698764	-0.7117394454873063	-0.2550621309209588	1.6259239649930881	-0.7035568654229565	-0.3234589013675713	2.0404788415334516	-0.5689596050910282	-0.3058758072732645	2.079956909485349	-0.5419678447827506	-0.3444712909033609	2.029275783291066	-0.5070163663479372	-1.6123401043743382	1.8574503144913233	0.8509327899396743	-0.34533442935243563	1.8856149521749317	-0.4451679191346752	-0.298755580507495	2.052280587556893	-0.6323616020117788	-0.2639678111994502	2.026808005030115	-0.59597331587465	-0.2433185311180609	2.0204210481542133	-0.5111069816219749
54	1.8	-0.3154084294409382	1.8928266353516066	-0.5446201624211039	-0.3303075795333245	1.8896913149662098	-0.48942754194485505	-0.2845250009480527	1.740922130104861	-0.49704934337924445													-0.3014892790435349	1.897733929012314	-0.5977922290087996	-0.2763245226393723	1.7614364414032908	-0.6346658913869927	-0.25234783649398307	1.6340594394498118	-0.698306334909448	-0.24319287828254443	1.5869225018089845	-0.6736898616535908	-0.23590275723623388	1.5967784196698764	-0.7117394454873063	-0.2550621309209588	1.6259239649930881	-0.7035568654229565	-0.3255412490344646	2.042200775288189	-0.5672640424382712	-0.30988872438692394	2.0787510698954037	-0.537214648766345	-0.34563451154413205	2.0320925362942504	-0.5033561476435122	-1.6104529386077349	1.8571656944063086	0.8459033829328849	-0.3459730486265193	1.8854915143551665	-0.4463919950927404	-0.30313080632721573	2.052577938854415	-0.6286507310337645	-0.2691089422545561	2.0271454442779286	-0.5945587484290704	-0.25052158785373724	2.020243491771006	-0.5081561832442816
55	1.8333333333333333	-0.31853432595349873	1.8899728538093665	-0.5454600919589683	-0.33261786097028334	1.8868459979877605	-0.4954807365610746	-0.2845250009480527	1.740922130104861	-0.49704934337924445													-0.3015953645360422	1.8950519247034758	-0.5975016374541087	-0.27796669818500375	1.7609006140386878	-0.6336820303453002	-0.25234783649398307	1.6340594394498118	-0.698306334909448	-0.24319287828254443	1.5869225018089845	-0.6736898616535908	-0.23590275723623388	1.5967784196698764	-0.7117394454873063	-0.2550621309209588	1.6259239649930881	-0.7035568654229565	-0.3256279409273995	2.0382639074842803	-0.5664354652279632	-0.31190036933895315	2.0783889976244594	-0.5351036288307421	-0.3466899763745838	2.0300046857350895	-0.505369463959928	-1.6085657728411316	1.856881074321294	0.8408739759260957	-0.34661166790060294	1.885368076535401	-0.44761607105080564	-0.30093270817982437	2.0501338097422583	-0.6297403446905417	-0.26938795304277957	2.027423860857121	-0.5985284766168458	-0.2564186285056105	2.0206471560628936	-0.501616857773298
56	1.8666666666666667	-0.32154525637905174	1.8916598090153087	-0.5468853637277719	-0.3357287959385068	1.8870383586861132	-0.4969347867505378	-0.2845250009480527	1.740922130104861	-0.49704934337924445													-0.3045866406277869	1.896668537320796	-0.5988907551611098	-0.27960887373063525	1.7603647866740848	-0.6326981693036078	-0.25234783649398307	1.6340594394498118	-0.698306334909448	-0.24319287828254443	1.5869225018089845	-0.6736898616535908	-0.23590275723623388	1.5967784196698764	-0.7117394454873063	-0.2550621309209588	1.6259239649930881	-0.7035568654229565	-0.32784571099633847	2.038071895404099	-0.5649154348496815	-0.3140970701939394	2.0769445244109335	-0.5331233759728389	-0.34970021246501964	2.0313802204862803	-0.506909141992311	-1.6066786070745285	1.8565964542362794	0.8358445689193064	-0.34725028717468653	1.8852446387156359	-0.44884014700887087	-0.3053893422651421	2.04935099881958	-0.626000004222622	-0.269666963831003	2.027702277436313	-0.6024982048046212	-0.25753599670628274	2.0157677401371252	-0.4953306576100036
57	1.9	-0.322769217477715	1.8927365238679332	-0.5502877123232984	-0.3369643998004444	1.8880528608663742	-0.5003640769093649	-0.2845250009480527	1.740922130104861	-0.49704934337924445													-0.306715202176011	1.897477311860546	-0.6052532391661971	-0.2812510492762667	1.759828959309482	-0.6317143082619152	-0.25234783649398307	1.6340594394498118	-0.698306334909448	-0.24319287828254443	1.5869225018089845	-0.6736898616535908	-0.23590275723623388	1.5967784196698764	-0.7117394454873063	-0.2550621309209588	1.6259239649930881	-0.7035568654229565	-0.32893082173469423	2.0378596314456137	-0.5677581540208428	-0.3170980665268174	2.07692616472321	-0.5340025800558159	-0.35002464403352723	2.0308416745030304	-0.5073622277106057	-1.6047914413079252	1.8563118341512648	0.830815161912517	-0.3478889064487702	1.8851212008958707	-0.45006422296693605	-0.3056626498478122	2.047429713066694	-0.6261056448018254	-0.26994597461922654	2.0279806940155054	-0.6064679329923967	-0.258653364906955	2.010888324211357	-0.4890444574467092
58	1.9333333333333333	-0.32290863870304665	1.8910701237643077	-0.5500978201542064	-0.3360561047231711	1.8865878500976818	-0.4970047964663634	-0.2845250009480527	1.740922130104861	-0.49704934337924445													-0.3067602564751151	1.8939977885674075	-0.6050568681755173	-0.28289322482189816	1.759293131944879	-0.6307304472202228	-0.25234783649398307	1.6340594394498118	-0.698306334909448	-0.24319287828254443	1.5869225018089845	-0.6736898616535908	-0.23590275723623388	1.5967784196698764	-0.7117394454873063	-0.2550621309209588	1.6259239649930881	-0.7035568654229565	-0.3290788708601036	2.036609777847499	-0.5677950216210659	-0.31923372731685695	2.0756678063391325	-0.5320810377705185	-0.3501159456289084	2.030655997425063	-0.5073255388584446	-1.6029042755413219	1.8560272140662502	0.8257857549057278	-0.34852752572285384	1.8849977630761052	-0.4512882989250013	-0.305602661498204	2.0459032614896127	-0.6257252497551664	-0.27022498540745	2.0282591105946977	-0.6104376611801721	-0.2647099461284918	2.008124842534793	-0.48194497701655065
59	1.9666666666666666	-0.324169812633515	1.8897629529419415	-0.553298787226501	-0.3382186657404571	1.8860007609731602	-0.5035156230234672	-0.2845250009480527	1.740922130104861	-0.49704934337924445													-0.3079350919877736	1.895308997235033	-0.6083308354137942	-0.28289322482189816	1.759293131944879	-0.6307304472202228	-0.25234783649398307	1.6340594394498118	-0.698306334909448	-0.24319287828254443	1.5869225018089845	-0.6736898616535908	-0.23590275723623388	1.5967784196698764	-0.7117394454873063	-0.2550621309209588	1.6259239649930881	-0.7035568654229565	-0.3311093126559439	2.0364134543545163	-0.5658414003706251	-0.3202910264469118	2.0743756981826293	-0.5345887998237612	-0.35199363774840486	2.0296483884239565	-0.5049380723701606	-1.6010171097747186	1.8557425939812355	0.8207563478989385	-0.34916614499693743	1.88487432525634	-0.4525123748830665	-0.3055658986348747	2.0468260017416986	-0.6256059982774331	-0.27050399619567345	2.02853752717389	-0.6144073893679475	-0.2676798441812738	2.0080588779339705	-0.4830159859701378
